<?xml version="1.0" standalone="no"?>
<!DOCTYPE svg PUBLIC "-//W3C//DTD SVG 20010904//EN"
 "http://www.w3.org/TR/2001/REC-SVG-20010904/DTD/svg10.dtd">
<svg version="1.0" xmlns="http://www.w3.org/2000/svg"
 width="500.000000pt" height="361.000000pt" viewBox="0 0 500.000000 361.000000"
 preserveAspectRatio="xMidYMid meet">

<g transform="translate(0.000000,361.000000) scale(0.100000,-0.100000)"
fill="#000000" stroke="none">
<path d="M2675 3418 c-114 -68 -221 -169 -290 -273 -103 -154 -140 -288 -133
-468 6 -129 28 -205 88 -307 39 -67 144 -180 167 -180 10 0 11 45 6 208 -6
227 6 399 36 522 l19 75 -6 -60 c-15 -130 -8 -486 12 -608 10 -64 23 -120 29
-124 23 -14 125 141 178 269 72 175 76 346 15 603 -52 220 -55 287 -19 381 9
23 -9 17 -102 -38z"/>
<path d="M1615 2279 c-118 -17 -248 -66 -362 -138 -24 -14 -43 -29 -43 -32 0
-4 17 -10 37 -14 76 -14 126 -49 284 -196 187 -174 292 -240 449 -280 143 -37
405 -35 405 3 0 18 -135 130 -250 208 -102 68 -248 149 -340 187 -100 41 -84
43 28 3 170 -60 318 -137 504 -262 56 -37 107 -68 114 -68 17 0 2 82 -31 167
-114 296 -446 472 -795 422z"/>
<path d="M3144 2280 c-262 -48 -463 -197 -552 -412 -35 -84 -52 -178 -32 -178
7 0 47 24 89 53 164 115 361 218 524 276 116 41 133 39 31 -3 -93 -38 -237
-117 -339 -186 -116 -79 -250 -190 -250 -208 0 -14 15 -18 90 -25 179 -15 333
12 471 81 101 51 153 91 297 227 127 119 215 180 277 190 22 4 40 10 40 14 0
10 -92 64 -170 100 -133 62 -348 94 -476 71z"/>
<path d="M850 1729 c-202 -23 -387 -79 -589 -180 -143 -71 -255 -143 -248
-162 2 -6 32 -16 66 -23 145 -30 257 -105 508 -342 92 -88 199 -186 236 -218
349 -301 740 -433 1217 -410 183 9 230 16 244 39 15 24 3 40 -85 115 -338 285
-869 607 -1154 701 -109 36 -93 40 27 7 324 -89 855 -361 1193 -611 98 -72
108 -77 130 -61 16 12 17 19 5 82 -73 400 -327 729 -705 915 -184 90 -323 129
-530 149 -116 11 -210 11 -315 -1z"/>
<path d="M3823 1729 c-406 -39 -771 -236 -999 -539 -115 -152 -212 -379 -230
-538 -6 -54 -4 -61 14 -71 17 -9 30 -4 84 34 438 310 911 555 1246 644 46 12
86 21 88 18 2 -2 -33 -16 -79 -31 -251 -82 -675 -330 -1017 -596 -177 -137
-220 -177 -220 -206 0 -28 9 -31 139 -44 445 -44 849 54 1178 287 102 72 166
128 400 349 241 227 348 298 494 328 34 7 65 18 67 24 5 15 -136 106 -253 165
-296 147 -601 206 -912 176z"/>
</g>
</svg>
